{"title":"Lewis S09E06 - What Lies Tangled pt2 x264 RB58.mp4","uid":12744806,"size":525477503,"categoryP":"video","categoryS":"tv_shows","magnet":"?xt=urn:btih:00e4812393c294fba36b1f650db93463d4f61dfa&amp;dn=Lewis+S09E06+-+What+Lies+Tangled+pt2+x264+RB58.mp4&amp;tr=udp%3A%2F%2Ftracker.leechers-paradise.org%3A6969&amp;tr=udp%3A%2F%2Fzer0day.ch%3A1337&amp;tr=udp%3A%2F%2Fopen.demonii.com%3A1337&amp;tr=udp%3A%2F%2Ftracker.coppersurfer.tk%3A6969&amp;tr=udp%3A%2F%2Fexodus.desync.com%3A6969","seeders":1,"leechers":0,"uploader":"RedBaron58","files":1,"time":1447289396,"description":"Lewis S09E06 - What Lies Tangled pt2 x264 mp4\r\n \nhttp://www.imdb.com/title/tt0874608/\r\n\r\n\r\nPlease be patient My intial upload speed is limited.\r\nThank you for your kind comments and feedback on my other torrents, your feedback is welcome.\r\n\r\n\r\nAbout the Episode:\r\nAs the investigation into blast that claimed the life of adulterous mathematics genius Adam Capstone \r\nprogresses, Lewis's concerns about securing another contract with Oxfordshire police continue to grow. \r\nThe situation is only exacerbated when a second bomb is located, this time at the home of \r\nCapstone's brother David, who had been working together with his sibling to sell the Knot Theory \r\nresearch to a pharmaceutical company.\r\n \r\nStarring Kevin Whately, Laurence Fox and Steve Toussaint\r\n\r\n\r\nI hope you enjoy.\r\n\r\n\r\nTechnical:\r\n\r\nGeneral\r\nComplete name                            : H:Lewis S09E06 - What Lies Tangled pt2 x264 RB58.mp4\r\nFormat                                   : MPEG-4\r\nFormat profile                           : Base Media\r\nCodec ID                                 : isom\r\nFile size                                : 501 MiB\r\nDuration                                 : 45mn 58s\r\nOverall bit rate                         : 1 524 Kbps\r\nWriting application                      : Lavf54.63.104\r\n\r\nVideo\r\nID                                       : 1\r\nFormat                                   : AVC\r\nFormat/Info                              : Advanced Video Codec\r\nFormat profile                           :   \r\nFormat settings, CABAC                   : Yes\r\nFormat settings, ReFrames                : 4 frames\r\nCodec ID                                 : avc1\r\nCodec ID/Info                            : Advanced Video Coding\r\nDuration                                 : 45mn 58s\r\nBit rate                                 : 1 400 Kbps\r\nWidth                                    : 832 pixels\r\nHeight                                   : 468 pixels\r\nDisplay aspect ratio                     : 16:9\r\nFrame rate mode                          : Constant\r\nFrame rate                               : 25.000 fps\r\nColor space                              : YUV\r\nChroma subsampling                       : 4:2:0\r\nBit depth                                : 8 bits\r\nScan type                                : Progressive\r\nBits/(Pixel*Frame)                       : 0.144\r\nStream size                              : 460 MiB (92%)\r\nWriting library                          : x264 core 123 r2189 35cf912\r\nEncoding settings                        : cabac=1 / ref=3 / deblock=1:0:0\r\n\r\nAudio\r\nID                                       : 2\r\nFormat                                   : AAC\r\nFormat/Info                              : Advanced Audio Codec\r\nFormat profile                           : LC\r\nCodec ID                                 : 40\r\nDuration                                 : 45mn 58s\r\nBit rate mode                            : Constant\r\nBit rate                                 : 115 Kbps\r\nChannel(s)                               : 2 channels\r\nChannel positions                        : Front: L R\r\nSampling rate                            : 48.0 KHz\r\nCompression mode                         : Lossy\r\nStream size                              : 37.9 MiB (8%)\r\nLanguage                                 : English","torrent":{"xt":"urn:btih:00e4812393c294fba36b1f650db93463d4f61dfa","amp;dn":"Lewis+S09E06+-+What+Lies+Tangled+pt2+x264+RB58.mp4","amp;tr":["udp%3A%2F%2Ftracker.leechers-paradise.org%3A6969","udp%3A%2F%2Fzer0day.ch%3A1337","udp%3A%2F%2Fopen.demonii.com%3A1337","udp%3A%2F%2Ftracker.coppersurfer.tk%3A6969","udp%3A%2F%2Fexodus.desync.com%3A6969"],"infoHash":"00e4812393c294fba36b1f650db93463d4f61dfa","infoHashBuffer":{"type":"Buffer","data":[0,228,129,35,147,194,148,251,163,107,31,101,13,185,52,99,212,246,29,250]},"announce":[],"urlList":[]}}